<svg class="svg-blue" width="85" height="85" viewBox="0 0 85 85" fill="none" xmlns="http://www.w3.org/2000/svg"><rect x="4.491" y="4.491" width="76.017" height="76.017" rx="38.009" fill="#FCFCF0" stroke="#8ABADD" stroke-width="6"/><rect x="6.465" y="6.465" width="72.07" height="72.07" rx="36.035" fill="#FCFCF0" stroke="#2D2A26"/><g clip-path="url(#a)" fill="#2D2A26"><path d="M45.418 15.67c.114-.688.609-.927 1.568-.767.959.16 1.352.547 1.238 1.238-.113.69-.62.937-1.57.776-.95-.16-1.35-.53-1.236-1.247ZM55.357 19.64c-.386.55-.12 1.116 1.551 2.315 1.388.995 1.916 1.138 2.203.73.286-.41.059-.718-1.549-1.99-2.164-1.706-2.804-2.697-1.984-3.861.819-1.164 2.209-.679 4.132.7 1.923 1.379 2.768 2.717 1.866 4l-1.321-.955c.402-.569-.064-1.114-1.438-2.099-1.298-.93-1.695-1.025-1.965-.64-.27.385-.026.695 1.409 1.857 1.946 1.563 3.123 2.571 2.202 3.883-.976 1.384-2.472.737-4.371-.626-2.108-1.51-3.107-2.772-2.056-4.268l1.321.954ZM71.629 33.078l-6.704.968-1.108-1.967 3.203-3.982-5.043.717-1.104-1.957 4.244-5.325.864 1.532-3.38 4.106 5.28-.746.982 1.743-3.334 4.232 5.226-.85.874 1.529ZM67.347 40.979 66.89 37.2l-1.42-.511-.216-1.785 6.647 2.483.265 2.191-5.858 4.034-.216-1.794 1.255-.84Zm1.125-.753 2.38-1.592-2.693-.977.313 2.569ZM66.128 52.15c-1.032-.254-1.634-1.05-1.293-2.453l1.374-5.642 6.116 1.515-1.324 5.432c-.34 1.403-1.153 1.659-2.053 1.434a1.852 1.852 0 0 1-1.07-.78 1.775 1.775 0 0 1-1.75.493Zm.474-1.569c.646.163.74-.227.845-.65l.883-3.67-1.293-.32-.895 3.665c-.102.428-.196.815.45.975h.01Zm2.943-4.02-.807 3.284c-.105.423-.2.81.44.968.64.158.722-.239.826-.662l.799-3.272-1.258-.317ZM63.724 58.004c.533.445.49 1-.13 1.755-.62.755-1.148.903-1.684.458-.535-.444-.49-1.01.124-1.76.613-.751 1.148-.904 1.69-.453ZM55.346 64.698c-.277-.611-.895-.664-2.761.199-1.546.717-1.935 1.104-1.726 1.558.208.454.58.411 2.479-.359 2.548-1.037 3.718-1.099 4.307.196.59 1.296-.523 2.27-2.666 3.263-2.143.991-3.718 1.06-4.367-.368l1.473-.681c.29.635.99.501 2.52-.209 1.45-.669 1.729-.955 1.532-1.398-.197-.442-.583-.368-2.297.304-2.314.922-3.768 1.446-4.433-.017-.71-1.544.604-2.528 2.723-3.508 2.35-1.085 3.931-1.329 4.69.34l-1.474.68ZM35.615 72.112l2.584-6.317 2.24.039 1.778 4.803 1.938-4.753 2.233.036 2.382 6.395-1.748-.026-1.78-5.019-2.051 4.961-1.99-.03-1.894-5.036-1.932 4.973-1.76-.026ZM31.04 64.481l3.467 1.491 1.146-.98 1.639.705-5.447 4.565-2.013-.865-.535-7.124 1.657.717.086 1.491Zm.08 1.357.175 2.868 2.186-1.864-2.36-1.004ZM22.075 57.799c.739-.772 1.721-.899 2.751.103l4.147 4.034-4.372 4.576-3.99-3.88c-1.03-1.002-.84-1.841-.199-2.515.322-.325.751-.518 1.206-.542a1.817 1.817 0 0 1 .457-1.776Zm3.078 5.781-2.403-2.337c-.31-.302-.595-.579-1.052-.103-.457.475-.163.748.154 1.059l2.404 2.337.897-.956Zm-1.968-4.586c-.461.478-.177.76.135 1.063l2.695 2.63.924-.957-2.695-2.629c-.31-.315-.597-.592-1.059-.107ZM18.255 52.785c-.65.239-1.101-.072-1.44-.992-.339-.92-.201-1.455.447-1.7.65-.243 1.113.077 1.45.988.336.91.201 1.455-.457 1.704ZM16.723 42.107c.66.064 1.018-.45 1.21-2.51.16-1.708.021-2.241-.474-2.29-.495-.047-.644.304-.947 2.348-.384 2.743-.917 3.797-2.323 3.663-1.407-.133-1.684-1.594-1.461-3.962.222-2.368.947-3.776 2.5-3.628l-.14 1.628c-.688-.067-.925.611-1.084 2.303-.15 1.6-.033 1.994.434 2.04.466.044.608-.326.89-2.152.367-2.483.646-4.015 2.233-3.864 1.674.16 1.864 1.792 1.658 4.134-.237 2.596-.83 4.099-2.638 3.925l.142-1.635ZM20.175 21.167l4.16 5.4-1.138 1.949-5.03-.825 3.135 4.063-1.134 1.938-6.688-1.075.898-1.527 5.21.922-3.266-4.252 1.011-1.728 5.276.825-3.315-4.156.881-1.534ZM29.08 20.99l-3.012 2.287.267 1.491-1.42 1.08-1.184-7.05 1.747-1.326 6.394 3.107-1.421 1.087-1.371-.676Zm-1.203-.607-2.558-1.286.507 2.842 2.05-1.556ZM39.293 16.502c.294 1.03-.09 1.954-1.465 2.351L32.29 20.45l-1.733-6.111 5.328-1.542c1.376-.396 1.998.187 2.254 1.085.118.444.069.917-.137 1.327.31.078.595.239.822.466.227.228.389.514.468.827Zm-6.498-.208 3.21-.928c.414-.121.795-.239.612-.867-.182-.629-.558-.519-.982-.397l-3.209.927.37 1.265Zm4.921.57c-.184-.647-.566-.537-.98-.415l-3.6 1.04.367 1.293 3.61-1.033c.404-.12.786-.23.603-.884Z"/></g><g clip-path="url(#b)"><path d="m45.756 36.216-10.428 18.06c-.178.31-.6.44-1.135.403-.537-.039-1.187-.247-1.826-.616-1.278-.738-2.024-1.839-1.666-2.458l10.427-18.06 4.628 2.671Z" fill="#307FE2"/><path d="m47.762 33.846-5.586-3.225c-.83-.479-1.181-1.426-.785-2.112l1.236-2.142c.396-.686 1.393-.855 2.222-.376l5.586 3.225c.83.48 1.183 1.427.787 2.113l-1.237 2.142c-.396.686-1.394.854-2.223.375Zm-3.478-6.877c-.182-.105-.398-.071-.483.076l-1.237 2.142c-.084.147-.005.35.177.456l5.586 3.225c.182.105.4.072.484-.075l1.237-2.142c.085-.146.005-.351-.178-.456l-5.586-3.226Z" fill="#2D2A26"/><path d="M34.181 55.065a3.436 3.436 0 0 1-3.399-5.127l11.34-19.642c.141-.244.507-.296.817-.116.31.179.448.521.307.765L31.972 50.472a2.137 2.137 0 0 0 2.091 3.193 2.137 2.137 0 0 0 1.61-1.054l11.275-19.529c.141-.244.507-.295.817-.116.31.179.448.521.307.765l-11.34 19.643a3.435 3.435 0 0 1-2.551 1.691Z" fill="#2D2A26"/><path d="m45.098 36.257-3.725-2.151a.5.5 0 1 1 .501-.869l3.726 2.151a.501.501 0 1 1-.502.869ZM43.512 53.616l-.867-.503 7.711-13.295a.501.501 0 0 1 .684-.183h.001c.24.14.321.446.182.685l-7.711 13.296Z" fill="#2D2A26"/><path d="m50.543 40.506-.008-.004c-.25-.147-.644-.545-.482-1.56.094-.593.363-1.288.755-1.954.772-1.309 2.019-2.473 2.935-1.944l.007.004c.25.148.644.545.483 1.56-.095.593-.364 1.287-.756 1.954-.772 1.309-2.018 2.473-2.934 1.944Zm2.681-4.608c-.136-.002-.863.43-1.553 1.6-.69 1.169-.716 2.015-.61 2.154.136.003.863-.43 1.552-1.6.69-1.168.717-2.015.611-2.154ZM40.146 58.403l-.008-.005c-.249-.147-.643-.545-.481-1.559.094-.594.363-1.288.755-1.954.772-1.31 2.018-2.474 2.934-1.945l.007.004c.917.542.501 2.201-.273 3.514-.392.666-.87 1.237-1.344 1.608-.801.626-1.338.482-1.59.337Zm2.681-4.608c-.135-.003-.863.43-1.552 1.6-.69 1.168-.716 2.014-.61 2.154.135.003.863-.43 1.552-1.6.69-1.168.716-2.015.61-2.154ZM40.705 40.844l-1.106-.64a.5.5 0 1 1 .5-.867l1.108.639a.501.501 0 0 1-.502.868ZM36.46 48.198l-1.108-.64a.5.5 0 1 1 .502-.867l1.107.639a.501.501 0 0 1-.502.868Z" fill="#2D2A26"/><path d="M35.59 48.424a.501.501 0 0 1-.184-.685l.632-1.093a.501.501 0 1 1 .867.501l-.63 1.093a.5.5 0 0 1-.685.184Z" fill="#2D2A26"/></g><defs><clipPath id="a"><path fill="#fff" transform="translate(12.676 12.675)" d="M0 0h59.649v59.649H0z"/></clipPath><clipPath id="b"><path fill="#fff" transform="rotate(30 -21.009 77.776)" d="M0 0h32.061v31.316H0z"/></clipPath></defs></svg>